@startuml

title __INTERNAL's Class Diagram__\n

  namespace com.pullenti.ner {
    namespace booklink {
      namespace internal {
        class com.pullenti.ner.booklink.internal.BookLinkToken {
            + addCoef : double
            + startOfName : String
            + value : String
            {static} - m_Termins : TerminCollection
            + BookLinkToken()
            + BookLinkToken()
            {static} + _new360()
            {static} + _new361()
            {static} + _new362()
            {static} + _new363()
            {static} + checkLinkAfter()
            {static} + checkLinkBefore()
            {static} + initialize()
            {static} + parseStartOfLitBlock()
            {static} + tryParse()
            {static} + tryParseAuthor()
            {static} - _tryParse()
        }
      }
    }
  }
  

  namespace com.pullenti.ner {
    namespace booklink {
      namespace internal {
        class com.pullenti.ner.booklink.internal.BookLinkTyp {
            {static} + ANDOTHERS : BookLinkTyp
            {static} + DELIMETER : BookLinkTyp
            {static} + EDITORS : BookLinkTyp
            {static} + ELECTRONRES : BookLinkTyp
            {static} + GEO : BookLinkTyp
            {static} + MISC : BookLinkTyp
            {static} + N : BookLinkTyp
            {static} + NAME : BookLinkTyp
            {static} + NAMETAIL : BookLinkTyp
            {static} + NUMBER : BookLinkTyp
            {static} + PAGERANGE : BookLinkTyp
            {static} + PAGES : BookLinkTyp
            {static} + PERSON : BookLinkTyp
            {static} + PRESS : BookLinkTyp
            {static} + SEE : BookLinkTyp
            {static} + SOSTAVITEL : BookLinkTyp
            {static} + TAMZE : BookLinkTyp
            {static} + TRANSLATE : BookLinkTyp
            {static} + TYPE : BookLinkTyp
            {static} + UNDEFINED : BookLinkTyp
            {static} + URL : BookLinkTyp
            {static} + VOLUME : BookLinkTyp
            {static} + YEAR : BookLinkTyp
            {static} - m_Keys : Collection<Integer>
            {static} - m_Values : BookLinkTyp[]
            - m_str : String
            - m_val : int
            {static} - mapIntToEnum : HashMap<Integer, BookLinkTyp>
            {static} - mapStringToEnum : HashMap<String, BookLinkTyp>
            + compareTo()
            {static} + getValues()
            + hashCode()
            {static} + isDefined()
            {static} + of()
            {static} + of()
            + toString()
            + value()
            - BookLinkTyp()
        }
      }
    }
  }
  

  namespace com.pullenti.ner {
    namespace booklink {
      namespace internal {
        class com.pullenti.ner.booklink.internal.MetaBookLink {
            {static} + IMAGEID : String
            {static} + globalMeta : MetaBookLink
            + MetaBookLink()
            + getCaption()
            + getImageId()
            + getName()
            {static} + initialize2()
        }
      }
    }
  }
  

  namespace com.pullenti.ner {
    namespace booklink {
      namespace internal {
        class com.pullenti.ner.booklink.internal.MetaBookLinkRef {
            {static} + IMAGEID : String
            {static} + IMAGEIDINLINE : String
            {static} + IMAGEIDLAST : String
            {static} + globalMeta : MetaBookLinkRef
            + MetaBookLinkRef()
            + getCaption()
            + getImageId()
            + getName()
            {static} + initialize()
        }
      }
    }
  }
  

  namespace com.pullenti.ner {
    namespace booklink {
      namespace internal {
        class com.pullenti.ner.booklink.internal.ResourceHelper {
            + ResourceHelper()
            {static} + getBytes()
            {static} + getString()
        }
      }
    }
  }
  

  com.pullenti.ner.booklink.internal.BookLinkToken -up-|> com.pullenti.ner.MetaToken
  com.pullenti.ner.booklink.internal.BookLinkToken o-- com.pullenti.ner.person.internal.FioTemplateType : personTemplate
  com.pullenti.ner.booklink.internal.BookLinkToken o-- com.pullenti.ner.Referent : ref
  com.pullenti.ner.booklink.internal.BookLinkToken o-- com.pullenti.ner.ReferentToken : tok
  com.pullenti.ner.booklink.internal.BookLinkToken o-- com.pullenti.ner.booklink.internal.BookLinkTyp : typ
  com.pullenti.ner.booklink.internal.BookLinkTyp .up.|> java.lang.Comparable
  com.pullenti.ner.booklink.internal.MetaBookLink -up-|> com.pullenti.ner.titlepage.internal.MetaTitleInfo
  com.pullenti.ner.booklink.internal.MetaBookLinkRef -up-|> com.pullenti.ner.ReferentClass


right footer


PlantUML diagram generated by SketchIt! (https://bitbucket.org/pmesmeur/sketch.it)
For more information about this tool, please contact philippe.mesmeur@gmail.com
endfooter

@enduml
