@startuml

title __INTERNAL's Class Diagram__\n

  namespace com.pullenti.ner {
    namespace named {
      namespace internal {
        class com.pullenti.ner.named.internal.MetaNamedEntity {
            {static} + GLOBALMETA : MetaNamedEntity
            {static} + IMAGEID : String
            + MetaNamedEntity()
            + getCaption()
            + getImageId()
            + getName()
            {static} + initialize()
        }
      }
    }
  }
  

  namespace com.pullenti.ner {
    namespace named {
      namespace internal {
        class com.pullenti.ner.named.internal.NamedItemToken {
            + isInBracket : boolean
            + isWellknown : boolean
            + nameValue : String
            + typeValue : String
            {static} - m_Names : TerminCollection
            {static} - m_Types : TerminCollection
            + NamedItemToken()
            + NamedItemToken()
            {static} + _new1768()
            {static} + _new1769()
            {static} + _new1771()
            {static} + initialize()
            + toString()
            {static} + tryParse()
            {static} + tryParseList()
        }
      }
    }
  }
  

  com.pullenti.ner.named.internal.MetaNamedEntity -up-|> com.pullenti.ner.ReferentClass
  com.pullenti.ner.named.internal.NamedItemToken -up-|> com.pullenti.ner.MetaToken
  com.pullenti.ner.named.internal.NamedItemToken o-- com.pullenti.ner.named.NamedEntityKind : kind
  com.pullenti.ner.named.internal.NamedItemToken o-- com.pullenti.ner.Referent : ref


right footer


PlantUML diagram generated by SketchIt! (https://bitbucket.org/pmesmeur/sketch.it)
For more information about this tool, please contact philippe.mesmeur@gmail.com
endfooter

@enduml
