@startuml

title __INTERNAL's Class Diagram__\n

  namespace com.pullenti.ner {
    namespace uri {
      namespace internal {
        class com.pullenti.ner.uri.internal.MetaUri {
            {static} + MAILIMAGEID : String
            {static} + URIIMAGEID : String
            {static} + globalMeta : MetaUri
            + MetaUri()
            + getCaption()
            + getImageId()
            + getName()
            {static} + initialize()
        }
      }
    }
  }
  

  namespace com.pullenti.ner {
    namespace uri {
      namespace internal {
        class com.pullenti.ner.uri.internal.UriItemToken {
            + value : String
            {static} - m_StdGroups : TerminCollection
            + UriItemToken()
            {static} + _new2750()
            {static} + attachBBK()
            {static} + attachDomainName()
            {static} + attachISBN()
            {static} + attachISOContent()
            {static} + attachIcqContent()
            {static} + attachMailUsers()
            {static} + attachSkype()
            {static} + attachUriContent()
            {static} + attachUrl()
            {static} + initialize()
            - UriItemToken()
            {static} - _AttachUriContent()
        }
      }
    }
  }
  

  com.pullenti.ner.uri.internal.MetaUri -up-|> com.pullenti.ner.ReferentClass
  com.pullenti.ner.uri.internal.UriItemToken -up-|> com.pullenti.ner.MetaToken


right footer


PlantUML diagram generated by SketchIt! (https://bitbucket.org/pmesmeur/sketch.it)
For more information about this tool, please contact philippe.mesmeur@gmail.com
endfooter

@enduml
