@startuml

title __DECREE's Class Diagram__\n

  namespace com.pullenti.ner {
    namespace decree {
      class com.pullenti.ner.decree.DecreeAnalyzer {
          {static} + ANALYZER_NAME : String
          {static} + _globalInstance : DecreeAnalyzer
          {static} - m_Inited : boolean
          + DecreeAnalyzer()
          {static} + _checkAliasAfter()
          {static} + _checkOtherTyp()
          {static} + _getDecree()
          {static} + _tryAttachApproved()
          + clone()
          + createReferent()
          + getCaption()
          + getDescription()
          + getImages()
          + getName()
          + getProgressWeight()
          + getTypeSystem()
          + getUsedExternObjectTypes()
          {static} + initialize()
          + process()
          + processReferent()
          {static} + tryAttach()
          {static} + tryAttachApproved()
          {static} + tryAttachParts()
          {static} - _TryAttach()
          - tryAttachPulishers()
      }
    }
  }
  

  namespace com.pullenti.ner {
    namespace decree {
      class com.pullenti.ner.decree.DecreeAnalyzer.ThisDecree {
          + hasOtherRef : boolean
          + hasThisRef : boolean
          + typ : String
          + ThisDecree()
          + ThisDecree()
          {static} + _new1130()
          {static} + _new1131()
          + toString()
          {static} + tryAttach()
          {static} + tryAttachBack()
      }
    }
  }
  

  namespace com.pullenti.ner {
    namespace decree {
      class com.pullenti.ner.decree.DecreeChangeKind {
          {static} + APPEND : DecreeChangeKind
          {static} + CONSIDER : DecreeChangeKind
          {static} + CONTAINER : DecreeChangeKind
          {static} + EXCHANGE : DecreeChangeKind
          {static} + EXPIRE : DecreeChangeKind
          {static} + NEW : DecreeChangeKind
          {static} + REMOVE : DecreeChangeKind
          {static} + UNDEFINED : DecreeChangeKind
          {static} - m_Keys : Collection<Integer>
          {static} - m_Values : DecreeChangeKind[]
          - m_str : String
          - m_val : int
          {static} - mapIntToEnum : HashMap<Integer, DecreeChangeKind>
          {static} - mapStringToEnum : HashMap<String, DecreeChangeKind>
          + compareTo()
          {static} + getValues()
          + hashCode()
          {static} + isDefined()
          {static} + of()
          {static} + of()
          + toString()
          + value()
          - DecreeChangeKind()
      }
    }
  }
  

  namespace com.pullenti.ner {
    namespace decree {
      class com.pullenti.ner.decree.DecreeChangeReferent {
          {static} + ATTR_CHILD : String
          {static} + ATTR_KIND : String
          {static} + ATTR_MISC : String
          {static} + ATTR_OWNER : String
          {static} + ATTR_PARAM : String
          {static} + ATTR_VALUE : String
          {static} + OBJ_TYPENAME : String
          + DecreeChangeReferent()
          {static} + _new1119()
          + canBeEquals()
          + checkCorrect()
          + getChildren()
          + getKind()
          + getOwners()
          + getParam()
          + getParentReferent()
          + getValue()
          + isOnlyText()
          + isOwnerName()
          + isOwnerNameAndText()
          + setKind()
          + setOnlyText()
          + setOwnerName()
          + setOwnerNameAndText()
          + setParam()
          + setValue()
          + toString()
      }
    }
  }
  

  namespace com.pullenti.ner {
    namespace decree {
      class com.pullenti.ner.decree.DecreeChangeValueKind {
          {static} + BLOCK : DecreeChangeValueKind
          {static} + FOOTNOTE : DecreeChangeValueKind
          {static} + NUMBERS : DecreeChangeValueKind
          {static} + ROBUSTWORDS : DecreeChangeValueKind
          {static} + SEQUENCE : DecreeChangeValueKind
          {static} + TEXT : DecreeChangeValueKind
          {static} + UNDEFINED : DecreeChangeValueKind
          {static} + WORDS : DecreeChangeValueKind
          {static} - m_Keys : Collection<Integer>
          {static} - m_Values : DecreeChangeValueKind[]
          - m_str : String
          - m_val : int
          {static} - mapIntToEnum : HashMap<Integer, DecreeChangeValueKind>
          {static} - mapStringToEnum : HashMap<String, DecreeChangeValueKind>
          + compareTo()
          {static} + getValues()
          + hashCode()
          {static} + isDefined()
          {static} + of()
          {static} + of()
          + toString()
          + value()
          - DecreeChangeValueKind()
      }
    }
  }
  

  namespace com.pullenti.ner {
    namespace decree {
      class com.pullenti.ner.decree.DecreeChangeValueReferent {
          {static} + ATTR_KIND : String
          {static} + ATTR_NEWITEM : String
          {static} + ATTR_NUMBER : String
          {static} + ATTR_VALUE : String
          {static} + OBJ_TYPENAME : String
          + DecreeChangeValueReferent()
          {static} + _new823()
          + canBeEquals()
          + getKind()
          + getNewItems()
          + getNumber()
          + getValue()
          + setKind()
          + setNumber()
          + setValue()
          + toString()
      }
    }
  }
  

  namespace com.pullenti.ner {
    namespace decree {
      class com.pullenti.ner.decree.DecreeKind {
          {static} + CONTRACT : DecreeKind
          {static} + KODEX : DecreeKind
          {static} + KONVENTION : DecreeKind
          {static} + PROGRAM : DecreeKind
          {static} + PROJECT : DecreeKind
          {static} + PUBLISHER : DecreeKind
          {static} + STANDARD : DecreeKind
          {static} + UNDEFINED : DecreeKind
          {static} + USTAV : DecreeKind
          {static} - m_Keys : Collection<Integer>
          {static} - m_Values : DecreeKind[]
          - m_str : String
          - m_val : int
          {static} - mapIntToEnum : HashMap<Integer, DecreeKind>
          {static} - mapStringToEnum : HashMap<String, DecreeKind>
          + compareTo()
          {static} + getValues()
          + hashCode()
          {static} + isDefined()
          {static} + of()
          {static} + of()
          + toString()
          + value()
          - DecreeKind()
      }
    }
  }
  

  namespace com.pullenti.ner {
    namespace decree {
      class com.pullenti.ner.decree.DecreePartReferent {
          {static} + ATTR_ADDAGREE : String
          {static} + ATTR_APPENDIX : String
          {static} + ATTR_CHAPTER : String
          {static} + ATTR_CLAUSE : String
          {static} + ATTR_DOCPART : String
          {static} + ATTR_INDENTION : String
          {static} + ATTR_ITEM : String
          {static} + ATTR_LOCALTYP : String
          {static} + ATTR_NAME : String
          {static} + ATTR_NOTICE : String
          {static} + ATTR_OWNER : String
          {static} + ATTR_PAGE : String
          {static} + ATTR_PARAGRAPH : String
          {static} + ATTR_PART : String
          {static} + ATTR_PREAMBLE : String
          {static} + ATTR_SECTION : String
          {static} + ATTR_SUBINDENTION : String
          {static} + ATTR_SUBITEM : String
          {static} + ATTR_SUBPARAGRAPH : String
          {static} + ATTR_SUBPROGRAM : String
          {static} + ATTR_SUBSECTION : String
          {static} + OBJ_TYPENAME : String
          + DecreePartReferent()
          {static} + _new1125()
          + addHighLevelInfo()
          + addName()
          + addSlot()
          + canBeEquals()
          {static} + createRangeReferent()
          + getAddagree()
          + getAppendix()
          + getChapter()
          + getClause()
          + getDocPart()
          + getIndention()
          + getItem()
          + getLocalTyp()
          + getMinLevel()
          + getName()
          + getNotice()
          + getOwner()
          + getPage()
          + getParagraph()
          + getParentReferent()
          + getPart()
          + getPreamble()
          + getSection()
          + getSubIndention()
          + getSubItem()
          + getSubParagraph()
          + getSubSection()
          + getSubprogram()
          + isAllItemsLessLevel()
          + isAllItemsOverThisLevel()
          + mergeSlots()
          + setAddagree()
          + setAppendix()
          + setChapter()
          + setClause()
          + setDocPart()
          + setIndention()
          + setItem()
          + setLocalTyp()
          + setNotice()
          + setOwner()
          + setPage()
          + setParagraph()
          + setPart()
          + setPreamble()
          + setSection()
          + setSubIndention()
          + setSubItem()
          + setSubParagraph()
          + setSubSection()
          + setSubprogram()
          + toString()
          - _CanBeEquals()
          - _getLevel()
          - _getShortName()
          - _hasLessLevelAttr()
      }
    }
  }
  

  namespace com.pullenti.ner {
    namespace decree {
      class com.pullenti.ner.decree.DecreeReferent {
          {static} + ATTR_CASENUMBER : String
          {static} + ATTR_DATE : String
          {static} + ATTR_EDITION : String
          {static} + ATTR_GEO : String
          {static} + ATTR_NAME : String
          {static} + ATTR_NUMBER : String
          {static} + ATTR_READING : String
          {static} + ATTR_SOURCE : String
          {static} + ATTR_TYPE : String
          {static} + OBJ_TYPENAME : String
          + DecreeReferent()
          {static} + _new1118()
          + addDate()
          + addName()
          + addNameStr()
          + addNumber()
          + addSlot()
          + canBeEquals()
          + canBeGeneralFor()
          + checkCorrection()
          + createOntologyItem()
          + getCaseNumber()
          + getCompareStrings()
          + getDate()
          + getKind()
          + getName()
          + getNumber()
          + getTyp()
          + getTyp0()
          + isLaw()
          + mergeSlots()
          + setTyp()
          + toString()
          - _CanBeEquals()
          - _allDates()
          - _allNumberDigits()
          - _allYears()
          - _getNumberDigits()
          - _getShortName()
      }
    }
  }
  

  com.pullenti.ner.decree.DecreeAnalyzer -up-|> com.pullenti.ner.Analyzer
  com.pullenti.ner.decree.DecreeAnalyzer +-down- com.pullenti.ner.decree.DecreeAnalyzer.ThisDecree
  com.pullenti.ner.decree.DecreeAnalyzer.ThisDecree -up-|> com.pullenti.ner.MetaToken
  com.pullenti.ner.decree.DecreeAnalyzer.ThisDecree o-- com.pullenti.ner.decree.DecreeReferent : real
  com.pullenti.ner.decree.DecreeChangeKind .up.|> java.lang.Comparable
  com.pullenti.ner.decree.DecreeChangeReferent -up-|> com.pullenti.ner.Referent
  com.pullenti.ner.decree.DecreeChangeValueKind .up.|> java.lang.Comparable
  com.pullenti.ner.decree.DecreeChangeValueReferent -up-|> com.pullenti.ner.Referent
  com.pullenti.ner.decree.DecreeKind .up.|> java.lang.Comparable
  com.pullenti.ner.decree.DecreePartReferent -up-|> com.pullenti.ner.Referent
  com.pullenti.ner.decree.DecreeReferent -up-|> com.pullenti.ner.Referent


right footer


PlantUML diagram generated by SketchIt! (https://bitbucket.org/pmesmeur/sketch.it)
For more information about this tool, please contact philippe.mesmeur@gmail.com
endfooter

@enduml
