@startuml

title __INTERNAL's Class Diagram__\n

  namespace com.pullenti.ner {
    namespace transport {
      namespace internal {
        class com.pullenti.ner.transport.internal.MetaTransport {
            {static} + IMAGEID : String
            {static} + globalMeta : MetaTransport
            + MetaTransport()
            + getCaption()
            + getImageId()
            + getName()
            {static} + initialize()
        }
      }
    }
  }
  

  namespace com.pullenti.ner {
    namespace transport {
      namespace internal {
        class com.pullenti.ner.transport.internal.TransItemToken {
            {static} + _globalInstance : TransItemToken
            + altValue : String
            + isAfterConjunction : boolean
            + isDoubt : boolean
            + routeItems : ArrayList<Object>
            + value : String
            {static} - m_Cars : String
            {static} - m_Flys : String
            {static} - m_Ontology : TerminCollection
            + TransItemToken()
            + TransItemToken()
            {static} + _attachNumber()
            {static} + _attachRusAutoNumber()
            {static} + _new2719()
            {static} + _new2720()
            {static} + _new2722()
            {static} + _new2724()
            {static} + _new2726()
            {static} + _new2729()
            {static} + _new2730()
            {static} + _new2733()
            {static} + checkNumberKeyword()
            {static} + initialize()
            + toString()
            {static} + tryParse()
            {static} + tryParseList()
            {static} - _TryParse()
            {static} - _attachModel()
            {static} - _loadBrands()
        }
      }
    }
  }
  

  namespace com.pullenti.ner {
    namespace transport {
      namespace internal {
        class com.pullenti.ner.transport.internal.TransItemToken.TransTermin {
            + isDoubt : boolean
            + TransTermin()
            + TransTermin()
            {static} + _new2734()
            {static} + _new2737()
            {static} + _new2738()
            {static} + _new2739()
            {static} + _new2741()
        }
      }
    }
  }
  

  namespace com.pullenti.ner {
    namespace transport {
      namespace internal {
        class com.pullenti.ner.transport.internal.TransItemToken.Typs {
            {static} + BRAND : Typs
            {static} + CLASS : Typs
            {static} + DATE : Typs
            {static} + GEO : Typs
            {static} + MODEL : Typs
            {static} + NAME : Typs
            {static} + NOUN : Typs
            {static} + NUMBER : Typs
            {static} + ORG : Typs
            {static} + ROUTE : Typs
            {static} - m_Keys : Collection<Integer>
            {static} - m_Values : Typs[]
            - m_str : String
            - m_val : int
            {static} - mapIntToEnum : HashMap<Integer, Typs>
            {static} - mapStringToEnum : HashMap<String, Typs>
            + compareTo()
            {static} + getValues()
            + hashCode()
            {static} + isDefined()
            {static} + of()
            {static} + of()
            + toString()
            + value()
            - Typs()
        }
      }
    }
  }
  

  com.pullenti.ner.transport.internal.MetaTransport -up-|> com.pullenti.ner.ReferentClass
  com.pullenti.ner.transport.internal.TransItemToken -up-|> com.pullenti.ner.MetaToken
  com.pullenti.ner.transport.internal.TransItemToken o-- com.pullenti.ner.transport.TransportKind : kind
  com.pullenti.ner.transport.internal.TransItemToken o-- com.pullenti.ner.Referent : ref
  com.pullenti.ner.transport.internal.TransItemToken o-- com.pullenti.ner.ReferentToken : state
  com.pullenti.ner.transport.internal.TransItemToken o-- com.pullenti.ner.transport.internal.TransItemToken.Typs : typ
  com.pullenti.ner.transport.internal.TransItemToken +-down- com.pullenti.ner.transport.internal.TransItemToken.TransTermin
  com.pullenti.ner.transport.internal.TransItemToken +-down- com.pullenti.ner.transport.internal.TransItemToken.Typs
  com.pullenti.ner.transport.internal.TransItemToken.TransTermin -up-|> com.pullenti.ner.core.Termin
  com.pullenti.ner.transport.internal.TransItemToken.TransTermin o-- com.pullenti.ner.transport.TransportKind : kind
  com.pullenti.ner.transport.internal.TransItemToken.TransTermin o-- com.pullenti.ner.transport.internal.TransItemToken.Typs : typ
  com.pullenti.ner.transport.internal.TransItemToken.Typs .up.|> java.lang.Comparable


right footer


PlantUML diagram generated by SketchIt! (https://bitbucket.org/pmesmeur/sketch.it)
For more information about this tool, please contact philippe.mesmeur@gmail.com
endfooter

@enduml
