@startuml

title __INTERNAL's Class Diagram__\n

  namespace com.pullenti.ner {
    namespace titlepage {
      namespace internal {
        class com.pullenti.ner.titlepage.internal.Line {
            + Line()
            + getCharsCount()
            + isPureEn()
            + isPureRu()
            {static} + parse()
            - Line()
        }
      }
    }
  }
  

  namespace com.pullenti.ner {
    namespace titlepage {
      namespace internal {
        class com.pullenti.ner.titlepage.internal.MetaTitleInfo {
            {static} + TITLEINFOIMAGEID : String
            {static} + globalMeta : MetaTitleInfo
            + MetaTitleInfo()
            + getCaption()
            + getImageId()
            + getName()
            {static} + initialize()
        }
      }
    }
  }
  

  namespace com.pullenti.ner {
    namespace titlepage {
      namespace internal {
        class com.pullenti.ner.titlepage.internal.PersonRelation {
            + coefs : HashMap<Types, Float>
            + PersonRelation()
            {static} + _new2698()
            + getBest()
            + toString()
        }
      }
    }
  }
  

  namespace com.pullenti.ner {
    namespace titlepage {
      namespace internal {
        class com.pullenti.ner.titlepage.internal.PersonRelations {
            + rels : ArrayList<PersonRelation>
            + PersonRelations()
            + add()
            + calcTypFromAttrs()
            + getAttrNameForType()
            + getPersons()
            + getRelTypes()
        }
      }
    }
  }
  

  namespace com.pullenti.ner {
    namespace titlepage {
      namespace internal {
        class com.pullenti.ner.titlepage.internal.TitleItemToken {
            {static} + _globalInstance : TitleItemToken
            + value : String
            {static} - m_Termins : TerminCollection
            + TitleItemToken()
            {static} + _new2699()
            {static} + initialize()
            + toString()
            {static} + tryAttach()
            - TitleItemToken()
            {static} - tryAttachSpeciality()
        }
      }
    }
  }
  

  namespace com.pullenti.ner {
    namespace titlepage {
      namespace internal {
        class com.pullenti.ner.titlepage.internal.TitleItemToken.Types {
            {static} + ADOPT : Types
            {static} + BOSS : Types
            {static} + CONSULTANT : Types
            {static} + DUST : Types
            {static} + EDITOR : Types
            {static} + KEYWORDS : Types
            {static} + OPPONENT : Types
            {static} + OTHERROLE : Types
            {static} + SPECIALITY : Types
            {static} + THEME : Types
            {static} + TRANSLATE : Types
            {static} + TYP : Types
            {static} + TYPANDTHEME : Types
            {static} + UNDEFINED : Types
            {static} + WORKER : Types
            {static} - m_Keys : Collection<Integer>
            {static} - m_Values : Types[]
            - m_str : String
            - m_val : int
            {static} - mapIntToEnum : HashMap<Integer, Types>
            {static} - mapStringToEnum : HashMap<String, Types>
            + compareTo()
            {static} + getValues()
            + hashCode()
            {static} + isDefined()
            {static} + of()
            {static} + of()
            + toString()
            + value()
            - Types()
        }
      }
    }
  }
  

  namespace com.pullenti.ner {
    namespace titlepage {
      namespace internal {
        class com.pullenti.ner.titlepage.internal.TitleNameToken {
            + rank : int
            + speciality : String
            + typeValue : String
            + TitleNameToken()
            {static} + canBeStartOfTextOrContent()
            {static} + sort()
            + toString()
            {static} + tryParse()
            - TitleNameToken()
            - calcRankAndValue()
        }
      }
    }
  }
  

  com.pullenti.ner.titlepage.internal.Line -up-|> com.pullenti.ner.MetaToken
  com.pullenti.ner.titlepage.internal.MetaTitleInfo -up-|> com.pullenti.ner.ReferentClass
  com.pullenti.ner.titlepage.internal.PersonRelation o-- com.pullenti.ner.person.PersonReferent : person
  com.pullenti.ner.titlepage.internal.TitleItemToken -up-|> com.pullenti.ner.MetaToken
  com.pullenti.ner.titlepage.internal.TitleItemToken o-- com.pullenti.ner.titlepage.internal.TitleItemToken.Types : typ
  com.pullenti.ner.titlepage.internal.TitleItemToken +-down- com.pullenti.ner.titlepage.internal.TitleItemToken.Types
  com.pullenti.ner.titlepage.internal.TitleItemToken.Types .up.|> java.lang.Comparable
  com.pullenti.ner.titlepage.internal.TitleNameToken -up-|> com.pullenti.ner.MetaToken
  com.pullenti.ner.titlepage.internal.TitleNameToken o-- com.pullenti.ner.Token : beginNameToken
  com.pullenti.ner.titlepage.internal.TitleNameToken o-- com.pullenti.ner.Token : endNameToken


right footer


PlantUML diagram generated by SketchIt! (https://bitbucket.org/pmesmeur/sketch.it)
For more information about this tool, please contact philippe.mesmeur@gmail.com
endfooter

@enduml
