@startuml

title __URI's Class Diagram__\n

  namespace com.pullenti.ner {
    namespace uri {
      class com.pullenti.ner.uri.UriAnalyzer {
          {static} + ANALYZER_NAME : String
          {static} + m_Schemes : TerminCollection
          + UriAnalyzer()
          + clone()
          + createReferent()
          + getCaption()
          + getDescription()
          + getImages()
          + getName()
          + getProgressWeight()
          + getTypeSystem()
          + getUsedExternObjectTypes()
          {static} + initialize()
          + process()
          {static} - _TryAttachLotus()
          {static} - _checkDetail()
          {static} - _siteBefore()
      }
    }
  }
  

  namespace com.pullenti.ner {
    namespace uri {
      class com.pullenti.ner.uri.UriReferent {
          {static} + ATTR_DETAIL : String
          {static} + ATTR_SCHEME : String
          {static} + ATTR_VALUE : String
          {static} + OBJ_TYPENAME : String
          + UriReferent()
          {static} + _new2758()
          {static} + _new2761()
          + canBeEquals()
          + getDetail()
          + getScheme()
          + getValue()
          + setDetail()
          + setScheme()
          + setValue()
          + toString()
      }
    }
  }
  

  com.pullenti.ner.uri.UriAnalyzer -up-|> com.pullenti.ner.Analyzer
  com.pullenti.ner.uri.UriReferent -up-|> com.pullenti.ner.Referent


right footer


PlantUML diagram generated by SketchIt! (https://bitbucket.org/pmesmeur/sketch.it)
For more information about this tool, please contact philippe.mesmeur@gmail.com
endfooter

@enduml
