@startuml

title __GOODS's Class Diagram__\n

  namespace com.pullenti.ner {
    namespace goods {
      class com.pullenti.ner.goods.GoodAttrType {
          {static} + CHARACTER : GoodAttrType
          {static} + KEYWORD : GoodAttrType
          {static} + MODEL : GoodAttrType
          {static} + NUMERIC : GoodAttrType
          {static} + PROPER : GoodAttrType
          {static} + REFERENT : GoodAttrType
          {static} + UNDEFINED : GoodAttrType
          {static} - m_Keys : Collection<Integer>
          {static} - m_Values : GoodAttrType[]
          - m_str : String
          - m_val : int
          {static} - mapIntToEnum : HashMap<Integer, GoodAttrType>
          {static} - mapStringToEnum : HashMap<String, GoodAttrType>
          + compareTo()
          {static} + getValues()
          + hashCode()
          {static} + isDefined()
          {static} + of()
          {static} + of()
          + toString()
          + value()
          - GoodAttrType()
      }
    }
  }
  

  namespace com.pullenti.ner {
    namespace goods {
      class com.pullenti.ner.goods.GoodAttributeReferent {
          {static} + ATTR_ALTVALUE : String
          {static} + ATTR_NAME : String
          {static} + ATTR_REF : String
          {static} + ATTR_TYPE : String
          {static} + ATTR_UNIT : String
          {static} + ATTR_VALUE : String
          {static} + OBJ_TYPENAME : String
          + GoodAttributeReferent()
          + canBeEquals()
          + createOntologyItem()
          + getAltValues()
          + getRef()
          + getTyp()
          + getUnits()
          + getValues()
          + mergeSlots()
          + setRef()
          + setTyp()
          + toString()
      }
    }
  }
  

  namespace com.pullenti.ner {
    namespace goods {
      class com.pullenti.ner.goods.GoodReferent {
          {static} + ATTR_ATTR : String
          {static} + OBJ_TYPENAME : String
          + GoodReferent()
          + canBeEquals()
          + createOntologyItem()
          + getAttrs()
          + toString()
      }
    }
  }
  

  namespace com.pullenti.ner {
    namespace goods {
      class com.pullenti.ner.goods.GoodsAnalyzer {
          {static} + ANALYZER_NAME : String
          {static} - m_Initialized : boolean
          {static} - m_Lock : Object
          + GoodsAnalyzer()
          + clone()
          + createAnalyzerData()
          + createReferent()
          + getCaption()
          + getDescription()
          + getImages()
          + getName()
          + getProgressWeight()
          + getTypeSystem()
          {static} + initialize()
          + isSpecific()
          + process()
          + processOntologyItem()
      }
    }
  }
  

  namespace com.pullenti.ner {
    namespace goods {
      class com.pullenti.ner.goods.GoodsAttrAnalyzer {
          {static} + ANALYZER_NAME : String
          {static} - m_Initialized : boolean
          {static} - m_Lock : Object
          + GoodsAttrAnalyzer()
          + clone()
          + createAnalyzerData()
          + createReferent()
          + getCaption()
          + getDescription()
          + getImages()
          + getName()
          + getProgressWeight()
          + getTypeSystem()
          {static} + initialize()
          + isSpecific()
          + process()
      }
    }
  }
  

  com.pullenti.ner.goods.GoodAttrType .up.|> java.lang.Comparable
  com.pullenti.ner.goods.GoodAttributeReferent -up-|> com.pullenti.ner.Referent
  com.pullenti.ner.goods.GoodReferent -up-|> com.pullenti.ner.Referent
  com.pullenti.ner.goods.GoodsAnalyzer -up-|> com.pullenti.ner.Analyzer
  com.pullenti.ner.goods.GoodsAttrAnalyzer -up-|> com.pullenti.ner.Analyzer


right footer


PlantUML diagram generated by SketchIt! (https://bitbucket.org/pmesmeur/sketch.it)
For more information about this tool, please contact philippe.mesmeur@gmail.com
endfooter

@enduml
