@startuml

title __DENOMINATION's Class Diagram__\n

  namespace com.pullenti.ner {
    namespace denomination {
      class com.pullenti.ner.denomination.DenominationAnalyzer {
          {static} + ANALYZER_NAME : String
          {static} - m_Inites : boolean
          + DenominationAnalyzer()
          + clone()
          + createAnalyzerData()
          + createReferent()
          + getCaption()
          + getDescription()
          + getImages()
          + getName()
          + getProgressWeight()
          + getTypeSystem()
          {static} + initialize()
          + isSpecific()
          + process()
          + processReferent()
          + tryAttach()
          - canBeStartOfDenom()
          - checkAttach()
          - tryAttachSpec()
      }
    }
  }
  

  namespace com.pullenti.ner {
    namespace denomination {
      class com.pullenti.ner.denomination.DenominationReferent {
          {static} + ATTR_VALUE : String
          {static} + OBJ_TYPENAME : String
          - m_Names : ArrayList<String>
          {static} - m_VarChars : HashMap<Character, String>
          + DenominationReferent()
          + addValue()
          + canBeEquals()
          + createOntologyItem()
          + getValue()
          + toString()
          {static} - addVars()
          - getNameVars()
      }
    }
  }
  

  com.pullenti.ner.denomination.DenominationAnalyzer -up-|> com.pullenti.ner.Analyzer
  com.pullenti.ner.denomination.DenominationReferent -up-|> com.pullenti.ner.Referent


right footer


PlantUML diagram generated by SketchIt! (https://bitbucket.org/pmesmeur/sketch.it)
For more information about this tool, please contact philippe.mesmeur@gmail.com
endfooter

@enduml
