@startuml

title __INTERNAL's Class Diagram__\n

  namespace com.pullenti.ner {
    namespace phone {
      namespace internal {
        class com.pullenti.ner.phone.internal.MetaPhone {
            {static} + PHONEIMAGEID : String
            {static} + globalMeta : MetaPhone
            + MetaPhone()
            + getCaption()
            + getImageId()
            + getName()
            {static} + initialize()
        }
      }
    }
  }
  

  namespace com.pullenti.ner {
    namespace phone {
      namespace internal {
        class com.pullenti.ner.phone.internal.PhoneHelper {
            {static} + _globalInstance : PhoneHelper
            {static} - m_AllCountryCodes : HashMap<String, String>
            {static} - m_PhoneRoot : PhoneNode
            + PhoneHelper()
            {static} + getAllCountryCodes()
            {static} + getCountryPrefix()
            {static} + initialize()
        }
      }
    }
  }
  

  namespace com.pullenti.ner {
    namespace phone {
      namespace internal {
        class com.pullenti.ner.phone.internal.PhoneHelper.PhoneNode {
            + children : HashMap<Character, PhoneNode>
            + countries : ArrayList<String>
            + pref : String
            + PhoneNode()
            + toString()
        }
      }
    }
  }
  

  namespace com.pullenti.ner {
    namespace phone {
      namespace internal {
        class com.pullenti.ner.phone.internal.PhoneItemToken {
            {static} + _globalInstance : PhoneItemToken
            + isInBrackets : boolean
            + value : String
            {static} - m_PhoneTermins : TerminCollection
            + PhoneItemToken()
            + PhoneItemToken()
            {static} + _new2632()
            {static} + _new2637()
            {static} + _new2638()
            {static} + _new2640()
            + canBeCountryPrefix()
            {static} + initialize()
            + toString()
            {static} + tryAttach()
            {static} + tryAttachAdditional()
            {static} + tryAttachAll()
            {static} + tryAttachAlternate()
            {static} - _TryAttach()
        }
      }
    }
  }
  

  namespace com.pullenti.ner {
    namespace phone {
      namespace internal {
        class com.pullenti.ner.phone.internal.PhoneItemToken.PhoneItemType {
            {static} + ADDNUMBER : PhoneItemType
            {static} + ALT : PhoneItemType
            {static} + CITYCODE : PhoneItemType
            {static} + COUNTRYCODE : PhoneItemType
            {static} + DELIM : PhoneItemType
            {static} + NUMBER : PhoneItemType
            {static} + PREFIX : PhoneItemType
            {static} - m_Keys : Collection<Integer>
            {static} - m_Values : PhoneItemType[]
            - m_str : String
            - m_val : int
            {static} - mapIntToEnum : HashMap<Integer, PhoneItemType>
            {static} - mapStringToEnum : HashMap<String, PhoneItemType>
            + compareTo()
            {static} + getValues()
            + hashCode()
            {static} + isDefined()
            {static} + of()
            {static} + of()
            + toString()
            + value()
            - PhoneItemType()
        }
      }
    }
  }
  

  com.pullenti.ner.phone.internal.MetaPhone -up-|> com.pullenti.ner.ReferentClass
  com.pullenti.ner.phone.internal.PhoneHelper +-down- com.pullenti.ner.phone.internal.PhoneHelper.PhoneNode
  com.pullenti.ner.phone.internal.PhoneItemToken -up-|> com.pullenti.ner.MetaToken
  com.pullenti.ner.phone.internal.PhoneItemToken o-- com.pullenti.ner.phone.internal.PhoneItemToken.PhoneItemType : itemType
  com.pullenti.ner.phone.internal.PhoneItemToken o-- com.pullenti.ner.phone.PhoneKind : kind
  com.pullenti.ner.phone.internal.PhoneItemToken +-down- com.pullenti.ner.phone.internal.PhoneItemToken.PhoneItemType
  com.pullenti.ner.phone.internal.PhoneItemToken.PhoneItemType .up.|> java.lang.Comparable


right footer


PlantUML diagram generated by SketchIt! (https://bitbucket.org/pmesmeur/sketch.it)
For more information about this tool, please contact philippe.mesmeur@gmail.com
endfooter

@enduml
