@startuml

title __PERSON's Class Diagram__\n

  namespace com.pullenti.ner {
    namespace person {
      class com.pullenti.ner.person.PersonAnalyzer {
          {static} + ANALYZER_NAME : String
          {static} + _globalInstance : PersonAnalyzer
          + nominativeCaseAlways : boolean
          + textStartsWithLastnameFirstnameMiddlename : boolean
          {static} - m_Inited : boolean
          - m_Level : int
          + PersonAnalyzer()
          + clone()
          + createAnalyzerData()
          + createReferent()
          + getCaption()
          + getDescription()
          + getImages()
          + getName()
          + getProgressWeight()
          + getTypeSystem()
          + getUsedExternObjectTypes()
          {static} + initialize()
          + process()
          + processOntologyItem()
          + processReferent()
          {static} + tryAttachPerson()
          - tryAttachPersons()
      }
    }
  }
  

  namespace com.pullenti.ner {
    namespace person {
      class com.pullenti.ner.person.PersonAnalyzer.PersonAnalyzerData {
          + canBePersonPropBeginChars : HashMap<Integer, Boolean>
          + needSecondStep : boolean
          + nominativeCaseAlways : boolean
          + textStartsWithLastnameFirstnameMiddlename : boolean
          + PersonAnalyzerData()
          + registerReferent()
      }
    }
  }
  

  namespace com.pullenti.ner {
    namespace person {
      class com.pullenti.ner.person.PersonIdentityReferent {
          {static} + ATTR_ADDRESS : String
          {static} + ATTR_DATE : String
          {static} + ATTR_NUMBER : String
          {static} + ATTR_ORG : String
          {static} + ATTR_STATE : String
          {static} + ATTR_TYPE : String
          {static} + OBJ_TYPENAME : String
          + PersonIdentityReferent()
          + canBeEquals()
          + getAddress()
          + getNumber()
          + getState()
          + getTyp()
          + setAddress()
          + setNumber()
          + setState()
          + setTyp()
          + toString()
      }
    }
  }
  

  namespace com.pullenti.ner {
    namespace person {
      class com.pullenti.ner.person.PersonPropertyKind {
          {static} + BOSS : PersonPropertyKind
          {static} + KIN : PersonPropertyKind
          {static} + KING : PersonPropertyKind
          {static} + MILITARYRANK : PersonPropertyKind
          {static} + NATIONALITY : PersonPropertyKind
          {static} + UNDEFINED : PersonPropertyKind
          {static} - m_Keys : Collection<Integer>
          {static} - m_Values : PersonPropertyKind[]
          - m_str : String
          - m_val : int
          {static} - mapIntToEnum : HashMap<Integer, PersonPropertyKind>
          {static} - mapStringToEnum : HashMap<String, PersonPropertyKind>
          + compareTo()
          {static} + getValues()
          + hashCode()
          {static} + isDefined()
          {static} + of()
          {static} + of()
          + toString()
          + value()
          - PersonPropertyKind()
      }
    }
  }
  

  namespace com.pullenti.ner {
    namespace person {
      class com.pullenti.ner.person.PersonPropertyReferent {
          {static} + ATTR_ATTR : String
          {static} + ATTR_HIGHER : String
          {static} + ATTR_NAME : String
          {static} + ATTR_REF : String
          {static} + OBJ_TYPENAME : String
          {static} - _tmpStack : int
          {static} - m_Bosses0 : ArrayList<String>
          {static} - m_Bosses1 : ArrayList<String>
          + PersonPropertyReferent()
          {static} + _new2454()
          + canBeEquals()
          + canBeGeneralFor()
          + canHasRef()
          + createOntologyItem()
          + getCompareStrings()
          + getHigher()
          + getKind()
          + getName()
          + getParentReferent()
          + mergeSlots()
          + setHigher()
          + setName()
          + toString()
          - _getHigher()
          - checkCorrectHigher()
      }
    }
  }
  

  namespace com.pullenti.ner {
    namespace person {
      class com.pullenti.ner.person.PersonReferent {
          {static} + ATTR_AGE : String
          {static} + ATTR_ATTR : String
          {static} + ATTR_BORN : String
          {static} + ATTR_CONTACT : String
          {static} + ATTR_DIE : String
          {static} + ATTR_FIRSTNAME : String
          {static} + ATTR_IDDOC : String
          {static} + ATTR_IDENTITY : String
          {static} + ATTR_LASTNAME : String
          {static} + ATTR_MIDDLENAME : String
          {static} + ATTR_NICKNAME : String
          {static} + ATTR_SEX : String
          {static} + OBJ_TYPENAME : String
          {static} + SHOWLASTNAMEONFIRSTPOSITION : boolean
          - m_IdentOccurs : ArrayList<PersonMorphCollection>
          - m_NameOccurs : ArrayList<PersonMorphCollection>
          - m_SecOccurs : ArrayList<PersonMorphCollection>
          - m_SurnameOccurs : ArrayList<PersonMorphCollection>
          + PersonReferent()
          {static} + _DelSurnameEnd()
          + addAttribute()
          + addContact()
          + addFioIdentity()
          + addIdentity()
          + canBeEquals()
          + canBeGeneralFor()
          + correctData()
          + createOntologyItem()
          + getAge()
          + getCompareStrings()
          + isFemale()
          + isMale()
          + mergeSlots()
          + setAge()
          + setFemale()
          + setMale()
          + toSortString()
          + toString()
          - _findForSurname()
          - _findShortestKingTitul()
          - _findShortestValue()
          - _getPrefix()
          - checkNames()
          - compareSurnamesPers()
          - compareSurnamesStrs()
          - correctAttrs()
          - correctIdentifiers()
          - correctSurnames()
          {static} - isInitial()
          - removeInitials()
          - removeSlots()
          - toFullString()
          - toShortString()
      }
    }
  }
  

  com.pullenti.ner.person.PersonAnalyzer -up-|> com.pullenti.ner.Analyzer
  com.pullenti.ner.person.PersonAnalyzer +-down- com.pullenti.ner.person.PersonAnalyzer.PersonAnalyzerData
  com.pullenti.ner.person.PersonAnalyzer.PersonAnalyzerData -up-|> com.pullenti.ner.core.AnalyzerDataWithOntology
  com.pullenti.ner.person.PersonIdentityReferent -up-|> com.pullenti.ner.Referent
  com.pullenti.ner.person.PersonPropertyKind .up.|> java.lang.Comparable
  com.pullenti.ner.person.PersonPropertyReferent -up-|> com.pullenti.ner.Referent
  com.pullenti.ner.person.PersonReferent -up-|> com.pullenti.ner.Referent
  com.pullenti.ner.person.PersonReferent o-- com.pullenti.ner.person.internal.FioTemplateType : m_PersonIdentityTyp


right footer


PlantUML diagram generated by SketchIt! (https://bitbucket.org/pmesmeur/sketch.it)
For more information about this tool, please contact philippe.mesmeur@gmail.com
endfooter

@enduml
