@startuml

title __PHONE's Class Diagram__\n

  namespace com.pullenti.ner {
    namespace phone {
      class com.pullenti.ner.phone.PhoneAnalyzer {
          {static} + ANALYZER_NAME : String
          {static} + _globalInstance : PhoneAnalyzer
          {static} - m_Inited : boolean
          + PhoneAnalyzer()
          + clone()
          + createAnalyzerData()
          + createReferent()
          + getCaption()
          + getDescription()
          + getImages()
          + getName()
          + getProgressWeight()
          + getTypeSystem()
          {static} + initialize()
          + process()
          + processReferent()
          - _TryAttach_()
          - getNextPhone()
          - tryAttach()
      }
    }
  }
  

  namespace com.pullenti.ner {
    namespace phone {
      class com.pullenti.ner.phone.PhoneAnalyzer.PhoneAnalizerData {
          - m_PhonesHash : HashMap<String, ArrayList<PhoneReferent>>
          + PhoneAnalizerData()
          + registerReferent()
      }
    }
  }
  

  namespace com.pullenti.ner {
    namespace phone {
      class com.pullenti.ner.phone.PhoneKind {
          {static} + FAX : PhoneKind
          {static} + HOME : PhoneKind
          {static} + MOBILE : PhoneKind
          {static} + UNDEFINED : PhoneKind
          {static} + WORK : PhoneKind
          {static} - m_Keys : Collection<Integer>
          {static} - m_Values : PhoneKind[]
          - m_str : String
          - m_val : int
          {static} - mapIntToEnum : HashMap<Integer, PhoneKind>
          {static} - mapStringToEnum : HashMap<String, PhoneKind>
          + compareTo()
          {static} + getValues()
          + hashCode()
          {static} + isDefined()
          {static} + of()
          {static} + of()
          + toString()
          + value()
          - PhoneKind()
      }
    }
  }
  

  namespace com.pullenti.ner {
    namespace phone {
      class com.pullenti.ner.phone.PhoneReferent {
          {static} + ATTR_ADDNUMBER : String
          {static} + ATTR_COUNTRYCODE : String
          {static} + ATTR_KIND : String
          {static} + ATTR_NUNBER : String
          {static} + OBJ_TYPENAME : String
          + m_Template : String
          + PhoneReferent()
          + canBeEquals()
          + canBeGeneralFor()
          + correct()
          + getAddNumber()
          + getCompareStrings()
          + getCountryCode()
          + getKind()
          + getNumber()
          + mergeSlots()
          + setAddNumber()
          + setCountryCode()
          + setKind()
          + setNumber()
          + toString()
          - _canBeEqual()
      }
    }
  }
  

  com.pullenti.ner.phone.PhoneAnalyzer -up-|> com.pullenti.ner.Analyzer
  com.pullenti.ner.phone.PhoneAnalyzer +-down- com.pullenti.ner.phone.PhoneAnalyzer.PhoneAnalizerData
  com.pullenti.ner.phone.PhoneAnalyzer.PhoneAnalizerData -up-|> com.pullenti.ner.core.AnalyzerData
  com.pullenti.ner.phone.PhoneKind .up.|> java.lang.Comparable
  com.pullenti.ner.phone.PhoneReferent -up-|> com.pullenti.ner.Referent


right footer


PlantUML diagram generated by SketchIt! (https://bitbucket.org/pmesmeur/sketch.it)
For more information about this tool, please contact philippe.mesmeur@gmail.com
endfooter

@enduml
