@startuml

title __INTERNAL's Class Diagram__\n

  namespace com.pullenti.ner {
    namespace mail {
      namespace internal {
        class com.pullenti.ner.mail.internal.MailLine {
            {static} + _globalInstance : MailLine
            + lev : int
            + mustBeFirstLine : boolean
            + refs : ArrayList<Referent>
            {static} - m_FromWords : TerminCollection
            {static} - m_HelloWords : TerminCollection
            {static} - m_RegardWords : TerminCollection
            + MailLine()
            + getCharsCount()
            + getMailAddr()
            + getWords()
            {static} + initialize()
            {static} + isKeyword()
            + isPureEn()
            + isPureRu()
            + isRealFrom()
            {static} + parse()
            + toString()
            - MailLine()
        }
      }
    }
  }
  

  namespace com.pullenti.ner {
    namespace mail {
      namespace internal {
        class com.pullenti.ner.mail.internal.MailLine.Types {
            {static} + BESTREGARDS : Types
            {static} + FROM : Types
            {static} + HELLO : Types
            {static} + UNDEFINED : Types
            {static} - m_Keys : Collection<Integer>
            {static} - m_Values : Types[]
            - m_str : String
            - m_val : int
            {static} - mapIntToEnum : HashMap<Integer, Types>
            {static} - mapStringToEnum : HashMap<String, Types>
            + compareTo()
            {static} + getValues()
            + hashCode()
            {static} + isDefined()
            {static} + of()
            {static} + of()
            + toString()
            + value()
            - Types()
        }
      }
    }
  }
  

  namespace com.pullenti.ner {
    namespace mail {
      namespace internal {
        class com.pullenti.ner.mail.internal.MetaLetter {
            {static} + IMAGEID : String
            {static} + globalMeta : MetaLetter
            + MetaLetter()
            + getCaption()
            + getImageId()
            + getName()
            {static} + initialize()
        }
      }
    }
  }
  

  com.pullenti.ner.mail.internal.MailLine -up-|> com.pullenti.ner.MetaToken
  com.pullenti.ner.mail.internal.MailLine o-- com.pullenti.ner.mail.internal.MailLine.Types : typ
  com.pullenti.ner.mail.internal.MailLine +-down- com.pullenti.ner.mail.internal.MailLine.Types
  com.pullenti.ner.mail.internal.MailLine.Types .up.|> java.lang.Comparable
  com.pullenti.ner.mail.internal.MetaLetter -up-|> com.pullenti.ner.ReferentClass


right footer


PlantUML diagram generated by SketchIt! (https://bitbucket.org/pmesmeur/sketch.it)
For more information about this tool, please contact philippe.mesmeur@gmail.com
endfooter

@enduml
