@startuml

title __MONEY's Class Diagram__\n

  namespace com.pullenti.ner {
    namespace money {
      class com.pullenti.ner.money.MoneyAnalyzer {
          {static} + ANALYZER_NAME : String
          {static} - m_Inited : boolean
          + MoneyAnalyzer()
          + clone()
          + createReferent()
          + getCaption()
          + getDescription()
          + getImages()
          + getName()
          + getProgressWeight()
          + getTypeSystem()
          + getUsedExternObjectTypes()
          {static} + initialize()
          + process()
          + processReferent()
          {static} + tryParse()
      }
    }
  }
  

  namespace com.pullenti.ner {
    namespace money {
      class com.pullenti.ner.money.MoneyReferent {
          {static} + ATTR_ALTREST : String
          {static} + ATTR_ALTVALUE : String
          {static} + ATTR_CURRENCY : String
          {static} + ATTR_REST : String
          {static} + ATTR_VALUE : String
          {static} + OBJ_TYPENAME : String
          + MoneyReferent()
          {static} + _new859()
          + canBeEquals()
          + getAltRest()
          + getAltValue()
          + getCurrency()
          + getRealValue()
          + getRest()
          + getValue()
          + setCurrency()
          + setRealValue()
          + toString()
      }
    }
  }
  

  com.pullenti.ner.money.MoneyAnalyzer -up-|> com.pullenti.ner.Analyzer
  com.pullenti.ner.money.MoneyReferent -up-|> com.pullenti.ner.Referent


right footer


PlantUML diagram generated by SketchIt! (https://bitbucket.org/pmesmeur/sketch.it)
For more information about this tool, please contact philippe.mesmeur@gmail.com
endfooter

@enduml
