@startuml

title __INTERNAL's Class Diagram__\n

  namespace com.pullenti.ner {
    namespace date {
      namespace internal {
        class com.pullenti.ner.date.internal.DateExToken {
            {static} + _globalInstance : DateExToken
            + isDiap : boolean
            + itemsFrom : ArrayList<DateExItemToken>
            + itemsTo : ArrayList<DateExItemToken>
            + DateExToken()
            + DateExToken()
            {static} + _new686()
            + getDate()
            + getDates()
            + toString()
            {static} + tryParse()
            {static} - _addItems()
            - _correctHours()
        }
      }
    }
  }
  

  namespace com.pullenti.ner {
    namespace date {
      namespace internal {
        class com.pullenti.ner.date.internal.DateExToken.DateExItemToken {
            + isValueNotstrict : boolean
            + isValueRelate : boolean
            + value : int
            + DateExItemToken()
            + DateExItemToken()
            {static} + _new687()
            {static} + _new688()
            + compareTo()
            + toString()
            {static} + tryParse()
        }
      }
    }
  }
  

  namespace com.pullenti.ner {
    namespace date {
      namespace internal {
        class com.pullenti.ner.date.internal.DateExToken.DateExItemTokenType {
            {static} + DAY : DateExItemTokenType
            {static} + DAYOFWEEK : DateExItemTokenType
            {static} + HOUR : DateExItemTokenType
            {static} + MINUTE : DateExItemTokenType
            {static} + MONTH : DateExItemTokenType
            {static} + QUARTAL : DateExItemTokenType
            {static} + WEEK : DateExItemTokenType
            {static} + WEEKEND : DateExItemTokenType
            {static} + YEAR : DateExItemTokenType
            {static} - m_Keys : Collection<Integer>
            {static} - m_Values : DateExItemTokenType[]
            - m_str : String
            - m_val : int
            {static} - mapIntToEnum : HashMap<Integer, DateExItemTokenType>
            {static} - mapStringToEnum : HashMap<String, DateExItemTokenType>
            + compareTo()
            {static} + getValues()
            + hashCode()
            {static} + isDefined()
            {static} + of()
            {static} + of()
            + toString()
            + value()
            - DateExItemTokenType()
        }
      }
    }
  }
  

  namespace com.pullenti.ner {
    namespace date {
      namespace internal {
        class com.pullenti.ner.date.internal.DateExToken.DateValues {
            + day1 : int
            + day2 : int
            + month1 : int
            + month2 : int
            + year : int
            + DateValues()
            {static} + _new685()
            + generateDate()
            + toString()
            {static} + tryCreate()
        }
      }
    }
  }
  

  namespace com.pullenti.ner {
    namespace date {
      namespace internal {
        class com.pullenti.ner.date.internal.DateItemToken {
            {static} + DAYSOFWEEK : TerminCollection
            {static} + _globalInstance : DateItemToken
            + intValue : int
            + newAge : int
            + stringValue : String
            - m_CanByMonth : int
            {static} - m_EmptyWords : HashMap<String, Object>
            {static} - m_Monthes : TerminCollection
            {static} - m_NewAge : TerminCollection
            {static} - m_Seasons : TerminCollection
            - m_Year : int
            + DateItemToken()
            + DateItemToken()
            {static} + _new701()
            {static} + _new702()
            {static} + _new708()
            {static} + _new723()
            + canBeDay()
            + canBeHour()
            + canBeMinute()
            + canBeYear()
            + canByMonth()
            + getYear()
            + getYear0()
            {static} + initialize()
            + isZeroHeaded()
            + setByMonth()
            + setYear()
            + toString()
            {static} + tryAttach()
            {static} + tryAttachList()
            {static} - _TryAttach()
            {static} - _isNewAge()
            {static} - testYearRusWord()
        }
      }
    }
  }
  

  namespace com.pullenti.ner {
    namespace date {
      namespace internal {
        class com.pullenti.ner.date.internal.DateItemToken.DateItemType {
            {static} + CENTURY : DateItemType
            {static} + DELIM : DateItemType
            {static} + HALFYEAR : DateItemType
            {static} + HOUR : DateItemType
            {static} + MINUTE : DateItemType
            {static} + MONTH : DateItemType
            {static} + NUMBER : DateItemType
            {static} + POINTER : DateItemType
            {static} + QUARTAL : DateItemType
            {static} + SECOND : DateItemType
            {static} + YEAR : DateItemType
            {static} - m_Keys : Collection<Integer>
            {static} - m_Values : DateItemType[]
            - m_str : String
            - m_val : int
            {static} - mapIntToEnum : HashMap<Integer, DateItemType>
            {static} - mapStringToEnum : HashMap<String, DateItemType>
            + compareTo()
            {static} + getValues()
            + hashCode()
            {static} + isDefined()
            {static} + of()
            {static} + of()
            + toString()
            + value()
            - DateItemType()
        }
      }
    }
  }
  

  namespace com.pullenti.ner {
    namespace date {
      namespace internal {
        class com.pullenti.ner.date.internal.MetaDate {
            {static} + DATEFULLIMAGEID : String
            {static} + DATEIMAGEID : String
            {static} + GLOBALMETA : MetaDate
            {static} + POINTER : Feature
            + MetaDate()
            + getCaption()
            + getImageId()
            + getName()
            {static} + initialize()
        }
      }
    }
  }
  

  namespace com.pullenti.ner {
    namespace date {
      namespace internal {
        class com.pullenti.ner.date.internal.MetaDateRange {
            {static} + DATERANGEIMAGEID : String
            {static} + GLOBALMETA : MetaDateRange
            + MetaDateRange()
            + getCaption()
            + getImageId()
            + getName()
            {static} + initialize()
        }
      }
    }
  }
  

  com.pullenti.ner.date.internal.DateExToken -up-|> com.pullenti.ner.MetaToken
  com.pullenti.ner.date.internal.DateExToken +-down- com.pullenti.ner.date.internal.DateExToken.DateExItemToken
  com.pullenti.ner.date.internal.DateExToken +-down- com.pullenti.ner.date.internal.DateExToken.DateExItemTokenType
  com.pullenti.ner.date.internal.DateExToken +-down- com.pullenti.ner.date.internal.DateExToken.DateValues
  com.pullenti.ner.date.internal.DateExToken.DateExItemToken .up.|> java.lang.Comparable
  com.pullenti.ner.date.internal.DateExToken.DateExItemToken -up-|> com.pullenti.ner.MetaToken
  com.pullenti.ner.date.internal.DateExToken.DateExItemToken o-- com.pullenti.ner.date.internal.DateExToken.DateExItemTokenType : typ
  com.pullenti.ner.date.internal.DateExToken.DateExItemTokenType .up.|> java.lang.Comparable
  com.pullenti.ner.date.internal.DateItemToken -up-|> com.pullenti.ner.MetaToken
  com.pullenti.ner.date.internal.DateItemToken o-- com.pullenti.morph.MorphLang : lang
  com.pullenti.ner.date.internal.DateItemToken o-- com.pullenti.ner.date.internal.DateItemToken.DateItemType : typ
  com.pullenti.ner.date.internal.DateItemToken +-down- com.pullenti.ner.date.internal.DateItemToken.DateItemType
  com.pullenti.ner.date.internal.DateItemToken.DateItemType .up.|> java.lang.Comparable
  com.pullenti.ner.date.internal.MetaDate -up-|> com.pullenti.ner.ReferentClass
  com.pullenti.ner.date.internal.MetaDateRange -up-|> com.pullenti.ner.ReferentClass


right footer


PlantUML diagram generated by SketchIt! (https://bitbucket.org/pmesmeur/sketch.it)
For more information about this tool, please contact philippe.mesmeur@gmail.com
endfooter

@enduml
