@startuml

title __TRANSPORT's Class Diagram__\n

  namespace com.pullenti.ner {
    namespace transport {
      class com.pullenti.ner.transport.TransportAnalyzer {
          {static} + ANALYZER_NAME : String
          {static} - m_Inited : boolean
          + TransportAnalyzer()
          + clone()
          + createReferent()
          + getCaption()
          + getDescription()
          + getImages()
          + getName()
          + getProgressWeight()
          + getTypeSystem()
          + getUsedExternObjectTypes()
          {static} + initialize()
          + process()
          + processReferent()
          - tryAttach()
      }
    }
  }
  

  namespace com.pullenti.ner {
    namespace transport {
      class com.pullenti.ner.transport.TransportKind {
          {static} + AUTO : TransportKind
          {static} + FLY : TransportKind
          {static} + SHIP : TransportKind
          {static} + SPACE : TransportKind
          {static} + TRAIN : TransportKind
          {static} + UNDEFINED : TransportKind
          {static} - m_Keys : Collection<Integer>
          {static} - m_Values : TransportKind[]
          - m_str : String
          - m_val : int
          {static} - mapIntToEnum : HashMap<Integer, TransportKind>
          {static} - mapStringToEnum : HashMap<String, TransportKind>
          + compareTo()
          {static} + getValues()
          + hashCode()
          {static} + isDefined()
          {static} + of()
          {static} + of()
          + toString()
          + value()
          - TransportKind()
      }
    }
  }
  

  namespace com.pullenti.ner {
    namespace transport {
      class com.pullenti.ner.transport.TransportReferent {
          {static} + ATTR_BRAND : String
          {static} + ATTR_CLASS : String
          {static} + ATTR_DATE : String
          {static} + ATTR_GEO : String
          {static} + ATTR_KIND : String
          {static} + ATTR_MODEL : String
          {static} + ATTR_NAME : String
          {static} + ATTR_NUMBER : String
          {static} + ATTR_NUMBER_REGION : String
          {static} + ATTR_ORG : String
          {static} + ATTR_ROUTEPOINT : String
          {static} + ATTR_TYPE : String
          {static} + OBJ_TYPENAME : String
          + TransportReferent()
          + addGeo()
          + canBeEquals()
          + check()
          + getKind()
          + mergeSlots()
          + setKind()
          + toString()
          - _getKind()
      }
    }
  }
  

  com.pullenti.ner.transport.TransportAnalyzer -up-|> com.pullenti.ner.Analyzer
  com.pullenti.ner.transport.TransportKind .up.|> java.lang.Comparable
  com.pullenti.ner.transport.TransportReferent -up-|> com.pullenti.ner.Referent


right footer


PlantUML diagram generated by SketchIt! (https://bitbucket.org/pmesmeur/sketch.it)
For more information about this tool, please contact philippe.mesmeur@gmail.com
endfooter

@enduml
