@startuml

title __INTERNAL's Class Diagram__\n

  namespace com.pullenti.ner {
    namespace resume.internal {
      class com.pullenti.ner.resume.internal.ResumeToken {
          + refs : ArrayList<Referent>
          + ResumeToken()
          + ResumeToken()
          {static} + tryParse()
      }
    }
  }
  

  namespace com.pullenti.ner {
    namespace resume.internal {
      class com.pullenti.ner.resume.internal.ResumeTokenType {
          {static} + JOB : ResumeTokenType
          {static} + STUDY : ResumeTokenType
          {static} + UNDEFINED : ResumeTokenType
          {static} - m_Keys : Collection<Integer>
          {static} - m_Values : ResumeTokenType[]
          - m_str : String
          - m_val : int
          {static} - mapIntToEnum : HashMap<Integer, ResumeTokenType>
          {static} - mapStringToEnum : HashMap<String, ResumeTokenType>
          + compareTo()
          {static} + getValues()
          + hashCode()
          {static} + isDefined()
          {static} + of()
          {static} + of()
          + toString()
          + value()
          - ResumeTokenType()
      }
    }
  }
  

  com.pullenti.ner.resume.internal.ResumeToken -up-|> com.pullenti.ner.MetaToken
  com.pullenti.ner.resume.internal.ResumeToken o-- com.pullenti.ner.resume.internal.ResumeTokenType : typ
  com.pullenti.ner.resume.internal.ResumeTokenType .up.|> java.lang.Comparable


right footer


PlantUML diagram generated by SketchIt! (https://bitbucket.org/pmesmeur/sketch.it)
For more information about this tool, please contact philippe.mesmeur@gmail.com
endfooter

@enduml
